<svg width="186" height="181" viewBox="0 0 186 181" fill="none" xmlns="http://www.w3.org/2000/svg">
<path d="M153.865 99.7985C149.463 100.371 144.841 99.2107 141.142 96.2073C140.349 95.5614 139.63 94.8603 138.991 94.1102L125.605 102.144L169.941 153.834L153.865 99.7985ZM31.9858 158.334C32.488 159.54 32.8414 160.796 33.0429 162.075L165.927 162.066C166.227 160.915 166.739 159.801 167.467 158.784L121.172 104.804L31.9858 158.334ZM27.1778 151.923C27.9714 152.569 28.6906 153.274 29.3292 154.021L117.824 100.904L83.6315 61.0369C71.3525 69.8509 54.1507 69.7499 41.8779 59.7847C27.308 47.9551 25.2062 26.6992 37.1845 12.3102C49.1628 -2.07887 70.686 -4.15456 85.2559 7.67505C97.6341 17.7259 101.01 34.5733 94.4039 48.2399L138.712 73.2767L138.851 73.1053C144.679 66.1037 155.151 65.0934 162.238 70.849C169.327 76.6046 170.347 86.9463 164.519 93.9449C162.904 95.8859 160.93 97.3677 158.769 98.3718L175.468 154.514C177.855 154.437 180.283 155.184 182.276 156.8C186.628 160.333 187.258 166.683 183.677 170.981C180.1 175.28 173.67 175.901 169.315 172.365C167.579 170.957 166.438 169.102 165.917 167.105L33.0336 167.112C32.5934 169.922 31.4092 172.653 29.4501 175.01C23.6221 182.012 13.1504 183.022 6.0638 177.263C-1.02585 171.508 -2.04575 161.166 3.78222 154.168C9.61948 147.178 20.0881 146.168 27.1778 151.923ZM136.167 77.6761L91.8589 52.6362C91.2699 53.4964 90.6344 54.3353 89.9555 55.1527C89.1898 56.0742 88.3807 56.9437 87.5406 57.7642L122.26 98.2432L136.337 89.7966C134.735 85.9605 134.648 81.6071 136.167 77.6761Z" fill="white"/>
</svg>
